<svg xmlns="http://www.w3.org/2000/svg" xml:space="preserve" width="2000" height="739" data-id="lg_uuHKr4xEDNM37H4hMX" data-version="1" viewBox="0 0 2000 739"><g data-padding="20"><g transform="translate(10 8.166)scale(.9779)"><rect width="905" height="739.02" x="146.103" y="-399.76" fill="none" rx="0" ry="0" transform="translate(413.77 399.75)"/><path fill="#fff" stroke="#fff" stroke-width="1.503" d="M784.623 422.24q-8.3 0-14.05-4.16-6.07-4.15-14.37-11.81-8.3-7.67-18.52-18.84-3.83-4.47-3.83-7.99 0-3.51 3.83-7.98 19.8-22.35 36.08-32.89 3.84-2.56 10.86-2.56 21.72 0 37.52-16.28 15.81-16.29 15.17-52.69-.32-39.28-19.32-54.93-19-15.64-51.89-15.64h-15.33q-21.07 0-28.74 8.94-7.66 8.94-7.66 30.65v322.21q0 9.58-3.99 13.26-4 3.67-13.58 3.67h-68.01q-9.58 0-13.58-3.67-3.99-3.68-3.99-13.26V202.85q0-31.93 5.91-50.61t22.99-26.83q17.09-8.14 49.98-8.14h76q91.65 0 135.72 35.93 44.07 35.92 44.07 110.01 0 55.56-23.16 90.69-23.15 35.12-60.03 51.73t-78.08 16.61Zm334.66-41.19v177.23q0 9.58-4 13.26-3.99 3.67-13.57 3.67h-68.02q-9.58 0-13.57-3.67-3.99-3.68-3.99-13.26V168.37q0-9.26 3.19-14.05 14.37-21.07 40.24-44.38 4.79-3.84 8.3-3.84 3.83 0 7.99 3.84 14.05 12.13 23.63 23.15 9.58 11.01 16.6 21.23 3.2 5.11 3.2 14.05V300.9h7.34q39.92 0 64.83-11.02 24.9-11.02 38.32-29.7 13.41-18.68 18.36-41.67t4.95-46.94v-3.2q0-9.26 3.19-14.05 14.37-21.07 40.24-44.38 4.79-3.84 8.3-3.84 3.83 0 7.98 3.84 14.05 12.13 23.63 23.15 9.58 11.01 16.61 21.23 3.19 5.11 3.19 14.05v3.2q0 25.86-5.11 53.49-5.11 27.62-18.04 52.21t-36.4 41.99-60.52 22.83v2.24q33.21 10.54 59.24 34.96 26.03 24.43 45.03 55.73 19 31.29 31.13 62.91 12.14 31.61 17.25 56.52 2.55 11.82 0 16.29-2.56 4.47-12.14 4.47h-78.24q-16.28 0-19.16-15.01-4.79-24.27-18.68-54.77-13.89-30.49-34.65-58.91-20.75-28.43-46.14-46.95t-53.17-18.52Z"/></g><path fill="transparent" stroke="transparent" d="M547.5 0h905v739h-905z"/></g></svg>